<svg version="1.1" id="Layer_1" xmlns="http://www.w3.org/2000/svg" xmlns:xlink="http://www.w3.org/1999/xlink" x="0px" y="0px"
	 width="100%" viewBox="0 0 496 496" enable-background="new 0 0 496 496" xml:space="preserve">
<path fill="#000000" opacity="1.000000" stroke="none" 
	d="
M414.336670,361.746887 
	C388.929047,357.049347 363.924866,352.474609 338.918671,347.911011 
	C334.016296,347.016327 329.125305,346.026428 324.192963,345.339844 
	C320.648346,344.846497 318.885803,343.219513 318.741272,339.533112 
	C318.115295,323.567932 317.448975,307.603485 316.649200,291.646210 
	C315.524750,269.211182 314.240723,246.784164 313.081146,224.350815 
	C312.479889,212.719635 311.999512,201.082214 311.314148,189.430023 
	C310.637634,203.590729 310.015045,217.754272 309.273529,231.911575 
	C307.689575,262.152252 306.015961,292.388245 304.448761,322.629791 
	C304.155762,328.283905 304.143890,333.954407 304.086884,339.618225 
	C304.052582,343.024048 302.421722,344.667297 299.075165,345.272888 
	C268.498260,350.806030 237.937820,356.429993 207.370148,362.014221 
	C205.912750,362.280457 204.416702,362.618164 202.095184,361.083099 
	C238.184204,288.413696 274.320923,215.648209 310.457672,142.882721 
	C311.046906,142.812637 311.636139,142.742538 312.225372,142.672440 
	C348.421722,215.527496 384.618042,288.382568 420.786194,361.180908 
	C418.302307,362.804626 416.517792,362.270447 414.336670,361.746887 
z"/>
<path fill="#000000" opacity="1.000000" stroke="none" 
	d="
M196.752197,188.065643 
	C197.126175,179.433487 197.567200,171.288727 197.811478,163.138077 
	C197.930527,159.165512 199.569458,157.308090 203.656677,156.584503 
	C233.913345,151.227753 264.132446,145.658432 294.358246,140.128082 
	C295.995667,139.828476 297.579681,139.401993 299.913055,140.743805 
	C263.737091,213.654297 227.601303,286.483795 191.465515,359.313324 
	C190.956497,359.405243 190.447479,359.497162 189.938461,359.589081 
	C153.763611,286.707886 117.588745,213.826691 81.271416,140.658478 
	C85.618744,138.629791 89.287872,140.567993 92.803329,141.193314 
	C120.932739,146.196854 149.001144,151.542999 177.126358,156.570984 
	C181.279419,157.313400 183.186890,158.840073 183.348541,163.253311 
	C184.231705,187.364807 185.201019,211.475052 186.409485,235.572250 
	C187.715195,261.608093 189.316833,287.629120 190.733444,312.667877 
	C191.698349,292.242920 192.692642,270.807220 193.728882,249.373520 
	C194.709122,229.098114 195.733368,208.824829 196.752197,188.065643 
z"/>
</svg>